<?xml version="1.0" standalone="no"?>
<!DOCTYPE svg PUBLIC "-//W3C//DTD SVG 20010904//EN"
 "http://www.w3.org/TR/2001/REC-SVG-20010904/DTD/svg10.dtd">
<svg version="1.0" xmlns="http://www.w3.org/2000/svg"
 width="500.000000pt" height="500.000000pt" viewBox="0 0 500.000000 500.000000"
 preserveAspectRatio="xMidYMid meet">
<metadata>
Created by potrace 1.14, written by Peter Selinger 2001-2017
</metadata>
<g transform="translate(0.000000,500.000000) scale(0.100000,-0.100000)"
fill="#000000" stroke="none">
<path d="M0 2500 l0 -2500 2500 0 2500 0 0 2500 0 2500 -2500 0 -2500 0 0
-2500z m2860 1816 c443 -79 681 -272 740 -596 16 -89 13 -249 -5 -322 -45
-172 -160 -315 -316 -390 l-67 -32 77 -26 c100 -34 162 -70 233 -138 173 -164
238 -450 167 -732 -65 -257 -268 -452 -552 -530 -194 -53 -176 -52 -1039 -57
l-808 -4 0 174 0 173 150 28 150 28 0 1022 0 1022 -150 28 -150 28 0 175 0
174 738 -4 c641 -3 749 -6 832 -21z m-940 -2946 l0 -40 -55 0 -55 0 0 40 0 40
55 0 55 0 0 -40z m-354 -28 c54 -28 112 -95 121 -141 14 -68 8 -223 -10 -261
-25 -52 -57 -85 -107 -112 -41 -21 -60 -23 -207 -26 l-163 -4 0 35 c0 30 4 35
30 41 l30 6 0 204 0 204 -30 7 c-26 6 -30 11 -30 42 l0 35 163 -4 c143 -3 167
-6 203 -26z m677 -123 c21 -5 52 -23 70 -39 l32 -28 3 -141 c3 -131 5 -141 23
-141 15 0 19 -7 19 -35 l0 -35 -66 0 c-57 0 -67 3 -71 20 -7 25 -7 25 -43 -2
-34 -25 -99 -29 -146 -10 -64 27 -86 125 -40 179 30 35 83 53 160 53 l56 0 0
35 c0 41 -29 75 -62 75 -43 0 -67 -12 -70 -34 -2 -17 -11 -22 -46 -24 l-43 -3
3 48 3 48 55 22 c61 25 106 28 163 12z m542 -13 c44 -29 54 -63 56 -200 l2
-127 29 -6 c24 -5 28 -10 28 -39 l0 -34 -108 0 -108 0 -2 30 c-2 24 3 32 23
40 25 9 25 11 25 124 0 130 -7 146 -67 146 -64 0 -73 -17 -73 -146 0 -113 0
-114 25 -120 21 -5 25 -12 25 -40 l0 -34 -105 0 -105 0 0 34 c0 28 4 35 25 40
l26 7 -3 132 -3 132 -27 3 c-25 3 -28 8 -28 38 l0 34 79 0 c77 0 79 -1 85 -26
l7 -27 22 21 c47 44 121 52 172 18z m405 -11 l27 -26 7 25 c6 23 11 26 51 26
l45 0 0 -229 c0 -126 -4 -240 -9 -253 -15 -39 -70 -85 -117 -98 -69 -20 -194
4 -194 36 0 7 4 24 10 38 8 23 12 25 35 16 31 -12 115 -13 131 -2 19 12 34 49
34 84 0 19 -4 28 -8 21 -15 -24 -81 -44 -120 -37 -89 16 -132 85 -132 210 0
118 42 197 115 217 41 11 97 -1 125 -28z m519 -2 c119 -95 106 -313 -23 -380
-40 -21 -141 -22 -181 -1 -68 36 -105 104 -105 194 0 79 18 131 59 171 43 42
80 53 155 49 46 -3 66 -11 95 -33z m-1789 -212 c0 -139 -4 -250 -10 -268 -17
-48 -64 -76 -129 -77 -60 -1 -70 9 -57 60 5 18 13 24 34 24 50 0 52 9 52 226
l0 203 -27 3 c-23 2 -29 8 -31 36 l-3 32 85 0 86 0 0 -239z"/>
<path d="M2160 3526 l0 -376 203 -1 c334 -1 378 3 482 50 78 36 124 76 161
143 28 50 29 59 29 173 0 105 -3 127 -24 172 -28 62 -94 127 -159 155 -100 45
-138 49 -419 55 l-273 6 0 -377z"/>
<path d="M2160 2340 l0 -412 328 5 c256 3 338 8 379 20 181 53 267 155 280
333 16 206 -72 375 -226 436 -53 21 -72 22 -408 26 l-353 4 0 -412z"/>
<path d="M1376 1272 c-3 -5 -5 -92 -5 -195 l0 -187 60 0 c118 0 149 41 149
195 0 111 -16 157 -61 180 -30 16 -134 21 -143 7z"/>
<path d="M2126 961 c-10 -11 -16 -31 -14 -48 3 -25 7 -28 47 -31 54 -4 81 17
81 65 0 33 0 33 -48 33 -35 0 -54 -5 -66 -19z"/>
<path d="M3079 1108 c-17 -27 -19 -46 -17 -111 3 -69 6 -81 27 -98 28 -23 69
-24 99 -3 20 14 22 23 22 113 0 112 -10 131 -73 131 -31 0 -41 -5 -58 -32z"/>
<path d="M3530 1108 c-38 -62 -21 -204 25 -222 51 -19 97 1 116 51 12 33 11
113 -2 152 -13 38 -35 51 -83 51 -30 0 -40 -6 -56 -32z"/>
</g>
</svg>
